<?xml version="1.0" encoding="UTF-8"?>
<svg id="Layer_1" data-name="Layer 1" xmlns="http://www.w3.org/2000/svg" viewBox="0 0 1563 1563">
  <defs>
    <style>
      .cls-1 {
        fill: #fff;
      }

      .cls-2 {
        stroke: #231f20;
        stroke-miterlimit: 10;
      }

      .cls-2, .cls-3 {
        fill: #292562;
      }
    </style>
  </defs>
  <circle class="cls-1" cx="781.5" cy="781.5" r="781.5"/>
  <path class="cls-3" d="m781.44,53.55C379.14,53.55,52.94,379.65,52.94,781.95s326.1,728.5,728.5,728.5c257.7,0,484.2-133.9,613.7-335.8,3.1-4.9,6.2-9.9,9.3-14.9,1-1.7,2.1-3.5,3.1-5.2,1.1-1.8,2.1-3.6,3.2-5.4.4-.7.8-1.4,1.2-2.1,1.7-3,3.4-6,5.1-9,3.7-6.6,7.3-13.3,10.8-20,.3-.6.7-1.2,1-1.9.2-.3.3-.6.5-.9.1-.1.1-.2.2-.3.1-.2.2-.4.3-.7,1.9-3.6,3.7-7.2,5.5-10.8h0c.2-.5.5-1.1.8-1.6,1-1.9,1.9-3.9,2.8-5.9,1.2-2.5,2.4-5,3.6-7.5v-.1c16.4-35.4,30-72.4,40.7-110.6h.1c1.5-5.2,2.9-10.5,4.2-15.8h0c6-23.8,10.9-48.1,14.6-72.7h0c.8-5.2,1.5-10.5,2.1-15.7h0c1.3-10.2,2.4-20.4,3.2-30.7v-.3c.2-2.8.4-5.5.6-8.3.1-1.2.2-2.5.2-3.7.1-1.4.2-2.9.3-4.4.1-2,.2-3.9.3-5.8.5-9.5.8-19.1.9-28.7,0-3.1.1-6.2.1-9.4,0-402.6-326.1-728.7-728.4-728.7Zm66.1,907.3h0c10.9,15,25.9,32.6,46.1,50,13.4,11.5,26.5,20.7,38.2,27.9h.1c3.3,2,6.1,3.7,8.4,5,28.1,16.3,55.4,25.9,78.8,31.7,13.9,3.5,26.5,5.5,37,6.8h0c2.7.3,5.2.6,7.6.8,21.1,0,42.3.1,63.4.1h22.9c37.6.1,75.2.1,112.7.2.1-55.4.2-110.7.2-166.1v-16.8h-7.7l-56-.2.2,99.1v17.8h-138.1s-9.3-1.8-21.8-5.1c-3.9-1-8-2.2-12.3-3.4-9.8-2.9-20.2-6.4-29-10.5-3.8-1.7-11.4-5.3-21.3-11.3-3.9-2.4-8.2-5.1-12.7-8.2-13.8-9.5-29.9-22.8-45.4-40.5-10.1-11.5-30.7-35.6-44.9-72.1-1.4-3.8-2.8-7.7-4.1-11.7-3-9.2-5.5-19-7.3-29.6-.1-.5-.2-1-.2-1.5-.5-2.8-.9-5.5-1.2-8.2h0c-.5-3.5-.8-6.9-1-10.3h0c-.3-3.5-.5-7-.5-10.5-.8-26.4,3.3-49.5,8.6-67.9,5.2-18.1,11.4-31.6,14.8-39.1,17.5-37.2,41.2-62.6,57.5-77.2,7.2-6.4,13-10.8,16.2-13.2,38-27.7,75.6-37,95.9-40.6,69.2,0,152.1-.1,233.2-.1h38.7c26.2,0,51.9-.1,76.6-.1,14.6,0-13.7,0,0,0,9.2,28.4,19.8,57.6,25.4,85.3,9.8,47.7,15,94.9,15,143.2h0c0,367.1-297.6,664.7-664.7,664.7-158.9,0-304.8-55.8-419.5-148.8v-536.5l-23.4-44-4.8-9.2-26.4-49.7-5.5-10.2-4.9-9.3v596.8c-33.2-31-34.1-35.7-61-72.4l-29.3-44.7c-81-137.2-114.1-306.2-76.1-483.8,53-247.8,245.3-443.6,492.4-500.1,327.6-74.9,627.6,92.1,756.1,357.5-34.1,0-66.1-.2-97.3-.5-4.5-.1-9-.1-13.4-.1-68-.7-133.3-1.6-209.3-1.6-36.9,2-98.6,23.5-144.2,58.6-39,29.9-63.5,63.4-77.3,86.3-6.8,11.2-11,19.8-13.2,24.4-18.2,38.6-25.1,76.9-26.5,110.1-.3,7.6-.3,15-.2,22,.2,8.2.8,15.9,1.5,23.1,2.8,28.9,8.6,49.3,10.4,55.5,1.4,5,3,9.9,4.6,14.7,5.7,16.5,12.2,30,13.9,33.4.9,1.9,3.1,6.2,6.1,11.7,6.7,12.2,13.5,22.1,18.7,29.5"/>
  <path class="cls-2" d="m721.34,489.55v592.6l-78,1.6-12.1-20.7-9.8-16.9-34.3-58.5-34-58.1h0l-30.8-52.7-6.8-11.5-17.2-29.3-5.9-10.1-10.6-18.2-5.6-9.5-10.4-17.8-5.8-9.8-12-20.4-15.2-26-8.3-14.1-6.2-10.7-8.2-14-12.1-20.6-5.2-9-21.2-36.2-6.5-11.1-24.8-42.4-6.9-11.8-22.6-38.5-7.3-12.4-2.8-4.8-4.4-7.5h74.9l61.2,103.3,26.7,45.1,10.9,18.3,7.1,12,44.4,74.9,16.1,27.1,9.3,15.7,3.9,6.6h0c-.3,4.7,2.3,9.1,6.6,11.1l9.2,15.5,4.3,7.3,16.8,28.5h0l29.6,50,28,47.2,2.7,4.5,2.4-.8h0l2.1-.7v-311.7l.1-154.8,68.7-.7h0Z"/>
  <rect class="cls-2" x="1040.64" y="747.65" width="231.2" height="65"/>
</svg>