<?xml version="1.0" encoding="UTF-8"?>
<svg xmlns="http://www.w3.org/2000/svg" viewBox="0 0 441.21 305.32">
  <defs>
    <style>
      .cls-1 {
        isolation: isolate;
      }

      .cls-2 {
        fill: #685d93;
      }

      .cls-3 {
        mix-blend-mode: multiply;
      }

      .cls-3, .cls-4 {
        fill: #567ebd;
      }

      .cls-5 {
        mix-blend-mode: screen;
      }

      .cls-5, .cls-6 {
        fill: #69b3e3;
      }
    </style>
  </defs>
  <g class="cls-1">
    <g id="Layer_1" data-name="Layer 1">
      <g>
        <polygon class="cls-4" points="272.39 240.66 441.21 119.73 279.57 305.32 272.39 240.66"/>
        <polygon class="cls-3" points="272.39 240.66 294.42 224.88 279.57 305.32 272.39 240.66"/>
        <polygon class="cls-4" points="167.41 227.88 152.06 159.84 212.22 0 272.39 148.47 231.62 250.24 167.41 227.88"/>
        <polygon class="cls-3" points="167.41 227.88 160.64 165.41 229.63 42.95 272.39 148.47 231.62 250.24 167.41 227.88"/>
        <polygon class="cls-2" points="79.62 104.77 50.29 92.79 0 155.05 83.21 115.54 79.62 104.77"/>
        <polygon class="cls-4" points="177.2 199.35 86.21 87.4 50.29 92.79 171.82 305.32 177.2 199.35"/>
        <polygon class="cls-5" points="58.07 96.98 86.21 87.4 50.29 92.79 171.82 305.32 58.07 96.98"/>
        <path class="cls-3" d="m160.99,179.41c-.48,8.52-.55,17.07-.41,25.6.08,4.78.22,9.56.39,14.34.17,4.78.44,9.56.49,14.35.11,9.62.09,19.25.01,28.87-.07,8.04-.18,16.09-.31,24.13l10.64,18.61,5.39-105.96-16.21-19.94Z"/>
        <polygon class="cls-6" points="171.82 305.32 164.12 170.08 259.22 0 295.14 158.64 279.57 305.32 229.29 293.34 171.82 305.32"/>
        <polygon class="cls-5" points="171.82 305.32 164.12 170.08 259.22 0 295.14 158.64 257.51 9.58 168.82 169.62 171.82 305.32"/>
        <polygon class="cls-4" points="168.82 173.61 229.63 265.21 229.63 290.35 234.67 265.21 294.42 165.41 231.62 259.82 168.82 173.61"/>
        <path class="cls-4" d="m257.42,13.17l-25.8,237.07s27.6-177.8,25.8-237.07Z"/>
      </g>
    </g>
  </g>
</svg>