<?xml version="1.0" encoding="utf-8"?>
<!-- Generator: Adobe Illustrator 27.4.0, SVG Export Plug-In . SVG Version: 6.00 Build 0)  -->
<svg version="1.1" id="Layer_4" xmlns="http://www.w3.org/2000/svg" xmlns:xlink="http://www.w3.org/1999/xlink" x="0px" y="0px"
	 viewBox="0 0 500 500" style="enable-background:new 0 0 500 500;" xml:space="preserve">
<style type="text/css">
	.st0{fill:#EEF2EE;}
	.st1{fill:#FDFFFD;}
	.st2{fill:#F5F7F5;}
</style>
<g>
	<polygon class="st0" points="312.3,410.9 341.5,394.3 419.7,350.1 419.7,317.6 341.5,361.9 341.5,307.6 419.7,262.6 468.1,234.8 
		468.1,378.6 419.7,405.3 248.1,500 250,250.9 312.3,215.8 341.5,199.2 419.7,155 468.1,127.7 468.1,198.9 419.7,226.9 341.5,272.2 
		312.3,289.2 	"/>
	<polygon class="st1" points="250,250.9 248.1,500 179.2,460.7 179.2,459.6 92.5,277.2 92.5,411.3 31.9,376.7 31.9,127.7 92.5,162 
		105.5,169.3 179.2,346.4 179.2,210.9 	"/>
	<path class="st2" d="M252.5,0L31.9,127.7L92.5,162l13,7.4l73.7,41.6l70.8,40l218.1-123.3L252.5,0z M250,11.4l134.3,77.2l-43.4,26
		l-51.7-21.3c3.1-1.8,6.3-3.6,9.4-5.5c5.3-4.8,5.9-12.7,1.9-18c-4.4-5.8-13.3-6.9-19.3-1.9c-14,8.1-28,16.2-42,24.2L174.5,55
		L250,11.4z M47.7,128.3l117.2-67.8l64.7,37.2c-17.1,9.9-34.3,19.8-51.4,29.6c-4.6,5.3-4.8,13-0.6,18c3.5,4.2,9.4,5.8,14.9,4.1
		c7-4.1,14-8.1,21-12.2l2.1,18.5l-10.2,1.6l12.1,15.3v0l1.7,15l-31.2,18.7L47.7,128.3z M197.4,211.6l23-13.9l8.2-5l-1-10l-1.1-10.7
		l7.1-19l-8.9,1.4l-2.2-22.3c11.1-6.4,22.2-12.9,33.3-19.3c3.2-1.9,6.4-3.7,9.6-5.6c5.3-3.1,10.7-6.2,16-9.3l51.2,21.8l9.6,4.1
		l8.4-5.1l41.8-25.4l56.1,32.3L250,240.8L197.4,211.6z"/>
</g>
</svg>
