<?xml version="1.0" encoding="utf-8"?>
<!-- Generator: Adobe Illustrator 27.4.0, SVG Export Plug-In . SVG Version: 6.00 Build 0)  -->
<svg version="1.1" id="Layer_1" xmlns="http://www.w3.org/2000/svg" xmlns:xlink="http://www.w3.org/1999/xlink" x="0px" y="0px"
	 viewBox="0 0 20 20" style="enable-background:new 0 0 20 20;" xml:space="preserve">
<style type="text/css">
	.st0{fill-rule:evenodd;clip-rule:evenodd;fill:#0D2DA2;}
</style>
<path class="st0" d="M17.5,9.2v4.2c0,2.6,0,3.9-0.6,4.4c-0.3,0.3-0.7,0.4-1.1,0.5c-0.8,0.1-1.8-0.8-3.7-2.5
	c-0.8-0.8-1.3-1.1-1.8-1.2c-0.2,0-0.5,0-0.7,0c-0.5,0.1-0.9,0.5-1.8,1.2c-1.9,1.7-2.9,2.5-3.7,2.5c-0.4,0-0.8-0.2-1.1-0.5
	c-0.6-0.6-0.6-1.9-0.6-4.4V9.2c0-3.6,0-5.4,1.1-6.5c1.2-1,3-1,6.5-1s5.3,0,6.4,1.1S17.5,5.7,17.5,9.2z M6.9,5c0-0.3,0.3-0.6,0.6-0.6
	h5c0.3,0,0.6,0.3,0.6,0.6c0,0.3-0.3,0.6-0.6,0.6h-5C7.2,5.6,6.9,5.3,6.9,5z"/>
</svg>
